<svg id="Layer_1" data-name="Layer 1" xmlns="http://www.w3.org/2000/svg" x="170px" y="0px"
     width="80px" height="61.84px" viewBox="170 0 80 61.84">
	<defs>
		<style>.cls-1{fill:#000;}</style>
	</defs>
	<title>Stringendo</title>
	<path class="cls-1" d="M235.15,48.42a7.74,7.74,0,0,0-9.84,0,5.29,5.29,0,0,0,0,8.39,7.42,7.42,0,0,0,1.12.78,2.08,2.08,0,0,1-.88.18,4.22,4.22,0,0,1-2.1-.8,8.74,8.74,0,0,1-2.35-2.31A13.61,13.61,0,0,1,220,52.85a12.7,12.7,0,0,0,.47-3.69,11.41,11.41,0,0,0-.8-4.15,10.1,10.1,0,0,0-2.6-3.74,13.66,13.66,0,0,0-4.66-2.72,20.52,20.52,0,0,0-7-1.05,23.84,23.84,0,0,0-6,.67,36.09,36.09,0,0,0-4.28,1.34q-2.43-1.59-2.85-2.73a6,6,0,0,1-.42-2.06,3.38,3.38,0,0,1,1.68-3.11,8.73,8.73,0,0,1,4.53-1h9.23a28.6,28.6,0,0,0,6.08-.61,14.06,14.06,0,0,0,5.08-2.11A11.15,11.15,0,0,0,222,23.79a13.7,13.7,0,0,0,1.34-6.42A15.9,15.9,0,0,0,222,11,16.51,16.51,0,0,0,218,5.45a20.5,20.5,0,0,0-6.25-3.94A21.73,21.73,0,0,0,203.44,0,24.69,24.69,0,0,0,195,1.17,13.69,13.69,0,0,0,190.19,4,7.89,7.89,0,0,0,188,7.34a10.78,10.78,0,0,0-.51,2.89,8,8,0,0,0,1,4,10.52,10.52,0,0,0,2.62,3.06,17.69,17.69,0,0,0,3.56,2.22,24.77,24.77,0,0,0,3.8,1.42v.17a18.6,18.6,0,0,0-3.71.42A13.26,13.26,0,0,0,190.86,23a9.19,9.19,0,0,0-3.1,2.77,7.32,7.32,0,0,0-1.26,4.36,9.72,9.72,0,0,0,.21,1.51,9.91,9.91,0,0,0,1,2.56A13,13,0,0,0,190,37.25a17.59,17.59,0,0,0,4.15,3q-.76.59-1.68,1.38a12,12,0,0,0-1.72,1.85,10,10,0,0,0-1.34,2.43,8.76,8.76,0,0,0-.55,3.23A11,11,0,0,0,190,54.07a12,12,0,0,0,3.23,4,15.9,15.9,0,0,0,5.16,2.73,21.82,21.82,0,0,0,6.84,1,16.37,16.37,0,0,0,6.5-1.17A21,21,0,0,0,216.37,58l.76-.67a22.52,22.52,0,0,0,2.18-2.89l.08-.15A17,17,0,0,0,222.48,58a9.68,9.68,0,0,0,6.75,2.31,8.41,8.41,0,0,0,5.71-1.89,6.37,6.37,0,0,0,2.12-4.55,5.26,5.26,0,0,0,.15-1.23A5.35,5.35,0,0,0,235.15,48.42ZM200.34,21a16.37,16.37,0,0,1-3.9-4,9.39,9.39,0,0,1-1.38-5.39,14.21,14.21,0,0,1,.42-3.27,8.76,8.76,0,0,1,4.78-5.87,11.61,11.61,0,0,1,5.2-1,12.78,12.78,0,0,1,4.62.84,11.65,11.65,0,0,1,6.46,6,10.55,10.55,0,0,1,1,4.61,8.61,8.61,0,0,1-.84,4.07,7.23,7.23,0,0,1-4.87,3.75,13,13,0,0,1-2.77.35Zm10.91,28.4q0,2.43-.17,4.49a11,11,0,0,1-.84,3.57,5.32,5.32,0,0,1-1.93,2.35,6.29,6.29,0,0,1-3.52.84,6.15,6.15,0,0,1-3.44-.88,5.87,5.87,0,0,1-2.06-2.31,10.44,10.44,0,0,1-1-3.27,27.83,27.83,0,0,1-.25-3.78,31.18,31.18,0,0,1,.51-6.29A9.55,9.55,0,0,1,200,40.57,3.85,3.85,0,0,1,202.1,39a10.36,10.36,0,0,1,2.68-.34,8.78,8.78,0,0,1,2.69.38,4.05,4.05,0,0,1,2,1.51,8.56,8.56,0,0,1,1.3,3.27A27.31,27.31,0,0,1,211.25,49.42Z"/>
</svg>
